<svg width="66" height="66" viewBox="0 0 66 66" fill="none" xmlns="http://www.w3.org/2000/svg">
<path fill-rule="evenodd" clip-rule="evenodd" d="M0 29.3333C0 15.5055 0 8.59153 4.29577 4.29577C8.59153 0 15.5055 0 29.3333 0H36.6667C50.4945 0 57.4085 0 61.7042 4.29577C66 8.59153 66 15.5055 66 29.3333V36.6667C66 50.4945 66 57.4085 61.7042 61.7042C57.4085 66 50.4945 66 36.6667 66H29.3333C15.5055 66 8.59153 66 4.29577 61.7042C0 57.4085 0 50.4945 0 36.6667V29.3333ZM49.5 20.5C51.7091 20.5 53.5 18.7091 53.5 16.5C53.5 14.2909 51.7091 12.5 49.5 12.5C47.2909 12.5 45.5 14.2909 45.5 16.5C45.5 18.7091 47.2909 20.5 49.5 20.5ZM49.5 22C52.5376 22 55 19.5376 55 16.5C55 13.4624 52.5376 11 49.5 11C46.4624 11 44 13.4624 44 16.5C44 19.5376 46.4624 22 49.5 22ZM32.9999 46.1667C40.2717 46.1667 46.1666 40.2718 46.1666 33C46.1666 25.7283 40.2717 19.8334 32.9999 19.8334C25.7282 19.8334 19.8333 25.7283 19.8333 33C19.8333 40.2718 25.7282 46.1667 32.9999 46.1667ZM32.9999 47.6667C41.1001 47.6667 47.6666 41.1002 47.6666 33C47.6666 24.8999 41.1001 18.3334 32.9999 18.3334C24.8997 18.3334 18.3333 24.8999 18.3333 33C18.3333 41.1002 24.8997 47.6667 32.9999 47.6667Z" fill="white"/>
</svg>
