<svg width="88" height="66" viewBox="0 0 88 66" fill="none" xmlns="http://www.w3.org/2000/svg">
<path fill-rule="evenodd" clip-rule="evenodd" d="M7.62939e-05 18.1771V14.823L0.0581228 14.852C0.0290582 15.8845 0.0145274 16.9916 0.00726295 18.1807L7.62939e-05 18.1771ZM7.62939e-05 21.1193C0.000348362 20.0875 0.00159064 19.1091 0.00726295 18.1807L38.4098 37.382C41.9289 39.1415 46.0711 39.1415 49.5902 37.382L87.9927 18.1807C88 19.3695 88 20.6402 88 22V44C88 54.3709 88 59.5564 84.7782 62.7782C81.5564 66 76.3709 66 66 66H22C11.6291 66 6.44365 66 3.22183 62.7782C0 59.5564 0 54.3709 0 44V29H7.62939e-05V21.1193ZM87.9419 14.852L88.0001 14.8229V18.177L87.9927 18.1807C87.9855 16.9916 87.9709 15.8845 87.9419 14.852ZM87.9419 14.852L48.2485 34.6987C45.574 36.0359 42.426 36.0359 39.7515 34.6987L0.0581228 14.852C0.221614 9.0442 0.844987 5.59866 3.22183 3.22183C6.44365 0 11.6291 0 22 0H66C76.3709 0 81.5564 0 84.7782 3.22183C87.155 5.59866 87.7784 9.0442 87.9419 14.852Z" fill="white"/>
</svg>
