<?xml version="1.0" encoding="UTF-8"?>
<svg id="Layer_1" xmlns="http://www.w3.org/2000/svg" xmlns:xlink="http://www.w3.org/1999/xlink" version="1.1" viewBox="0 0 31.9 32">
  <!-- Generator: Adobe Illustrator 29.2.0, SVG Export Plug-In . SVG Version: 2.1.0 Build 108)  -->
  <defs>
    <style>
      .st0 {
        isolation: isolate;
      }

      .st1 {
        fill: red;
      }
    </style>
  </defs>
  <g class="st0">
    <g class="st0">
      <path class="st1" d="M7.3.5v.3H2.2v-.3h5.1ZM7.3,1.1v.3H2.2v-.3h5.1ZM7.3,1.7v.3H2.2v-.3h5.1ZM7.3,2.2v.3H2.2v-.3h5.1ZM7.3,2.8v.3H2.2v-.3h5.1ZM7.3,3.4v.3H2.2v-.3h5.1ZM7.3,3.9v.3H2.2v-.3h5.1ZM7.3,4.5v.3H2.2v-.3h5.1ZM7.3,5.1v.3H2.2v-.3h5.1ZM14.1,5.6v.3H2.2v-.3h11.9ZM14.1,6.2v.3H2.2v-.3h11.9ZM14.1,6.8v.3H2.2v-.3h11.9ZM7.3,7.3v.3H2.2v-.3h5.1ZM7.3,7.9v.3H2.2v-.3h5.1ZM7.3,8.5v.3H2.2v-.3h5.1ZM7.3,9v.3H2.2v-.3h5.1ZM7.3,9.6v.3H2.2v-.3h5.1ZM7.3,10.2v.3H2.2v-.3h5.1ZM7.3,10.7v.3H2.2v-.3h5.1ZM7.3,11.3v.3H2.2v-.3h5.1ZM7.3,11.9v.3H2.2v-.3h5.1ZM14.1.5v.3h-3.4v-.3h3.4ZM14.1,1.1v.3h-3.4v-.3h3.4ZM14.1,1.7v.3h-3.4v-.3h3.4ZM14.1,2.2v.3h-3.4v-.3h3.4ZM14.1,2.8v.3h-3.4v-.3h3.4ZM14.1,3.4v.3h-3.4v-.3h3.4ZM14.1,3.9v.3h-3.4v-.3h3.4ZM14.1,4.5v.3h-3.4v-.3h3.4ZM14.1,5.1v.3h-3.4v-.3h3.4ZM14.1,7.3v.3h-3.4v-.3h3.4ZM14.1,7.9v.3h-3.4v-.3h3.4ZM14.1,8.5v.3h-3.4v-.3h3.4ZM14.1,9v.3h-3.4v-.3h3.4ZM14.1,9.6v.3h-3.4v-.3h3.4ZM14.1,10.2v.3h-3.4v-.3h3.4ZM14.1,10.7v.3h-3.4v-.3h3.4ZM14.1,11.3v.3h-3.4v-.3h3.4ZM14.1,11.9v.3h-3.4v-.3h3.4Z"/>
    </g>
  </g>
  <g class="st0">
    <g class="st0">
      <path class="st1" d="M22.1,5.9v.3h-5.1v-.3h5.1ZM22.1,6.5v.3h-5.1v-.3h5.1ZM22.1,7.1v.3h-5.1v-.3h5.1ZM22.1,7.6v.3h-5.1v-.3h5.1ZM22.1,8.2v.3h-5.1v-.3h5.1ZM22.1,8.8v.3h-5.1v-.3h5.1ZM22.1,9.6h-5.1v-.3h5.1v.3ZM22.1,10.2h-5.1v-.3h5.1v.3ZM22.1,10.8h-5.1v-.3h5.1v.3ZM22.1,11.3h-5.1v-.3h5.1v.3ZM22.1,11.9h-5.1v-.3h5.1v.3ZM22.1,12.5h-5.1v-.3h5.1v.3ZM22.1,13h-5.1v-.3h5.1v.3ZM22.1,13.6h-5.1v-.3h5.1v.3ZM22.1,14.2h-5.1v-.3h5.1v.3ZM27.2,4.2v.3h-8.5v-.3h8.5ZM27.2,4.8v.3h-8.5v-.3h8.5ZM27.2,5.4v.3h-8.5v-.3h8.5ZM27.2,14.7h-8.5v-.3h8.5v.3ZM27.2,15.3h-8.5v-.3h8.5v.3ZM27.2,15.9h-8.5v-.3h8.5v.3ZM28.9,11v.3h-5.1v-.3h5.1ZM28.9,11.6v.3h-5.1v-.3h5.1ZM28.9,12.2v.3h-5.1v-.3h5.1ZM28.9,5.9v.3h-3.4v-.3h3.4ZM28.9,6.5v.3h-3.4v-.3h3.4ZM28.9,7.1v.3h-3.4v-.3h3.4ZM28.9,7.6v.3h-3.4v-.3h3.4ZM28.9,8.2v.3h-3.4v-.3h3.4ZM28.9,8.8v.3h-3.4v-.3h3.4ZM28.9,13h-3.4v-.3h3.4v.3ZM28.9,13.6h-3.4v-.3h3.4v.3ZM28.9,14.2h-3.4v-.3h3.4v.3Z"/>
    </g>
  </g>
  <g class="st0">
    <g class="st0">
      <path class="st1" d="M5.6,18.2h-3.4v-.3h3.4v.3ZM5.6,18.8h-3.4v-.3h3.4v.3ZM5.6,19.4h-3.4v-.3h3.4v.3ZM5.6,19.9h-3.4v-.3h3.4v.3ZM5.6,20.5h-3.4v-.3h3.4v.3ZM5.6,21.1h-3.4v-.3h3.4v.3ZM5.6,23.3h-3.4v-.3h3.4v.3ZM5.6,23.9h-3.4v-.3h3.4v.3ZM5.6,24.5h-3.4v-.3h3.4v.3ZM5.6,25h-3.4v-.3h3.4v.3ZM5.6,25.6h-3.4v-.3h3.4v.3ZM5.6,26.2h-3.4v-.3h3.4v.3ZM12.4,16.2v.3H3.9v-.3h8.5ZM12.4,16.8v.3H3.9v-.3h8.5ZM12.4,17.4v.3H3.9v-.3h8.5ZM12.4,21.6H3.9v-.3h8.5v.3ZM12.4,22.2H3.9v-.3h8.5v.3ZM12.4,22.8H3.9v-.3h8.5v.3ZM12.4,26.7H3.9v-.3h8.5v.3ZM12.4,27.3H3.9v-.3h8.5v.3ZM12.4,27.9H3.9v-.3h8.5v.3ZM14.1,18.2h-5.1v-.3h5.1v.3ZM14.1,18.8h-5.1v-.3h5.1v.3ZM14.1,19.4h-5.1v-.3h5.1v.3ZM14.1,19.9h-5.1v-.3h5.1v.3ZM14.1,20.5h-5.1v-.3h5.1v.3ZM14.1,21.1h-5.1v-.3h5.1v.3ZM14.1,23v.3h-5.1v-.3h5.1ZM14.1,23.6v.3h-5.1v-.3h5.1ZM14.1,24.2v.3h-5.1v-.3h5.1ZM14.1,25h-5.1v-.3h5.1v.3ZM14.1,25.6h-5.1v-.3h5.1v.3ZM14.1,26.2h-5.1v-.3h5.1v.3Z"/>
    </g>
  </g>
  <g class="st0">
    <g class="st0">
      <path class="st1" d="M20.4,21.6v.3h-3.4v-.3h3.4ZM20.4,22.2v.3h-3.4v-.3h3.4ZM20.4,22.8v.3h-3.4v-.3h3.4ZM20.4,23.3v.3h-3.4v-.3h3.4ZM20.4,23.9v.3h-3.4v-.3h3.4ZM20.4,24.5v.3h-3.4v-.3h3.4ZM20.4,25v.3h-3.4v-.3h3.4ZM20.4,25.6v.3h-3.4v-.3h3.4ZM20.4,26.2v.3h-3.4v-.3h3.4ZM20.4,27h-3.4v-.3h3.4v.3ZM20.4,27.6h-3.4v-.3h3.4v.3ZM20.4,28.2h-3.4v-.3h3.4v.3ZM20.4,28.7h-3.4v-.3h3.4v.3ZM20.4,29.3h-3.4v-.3h3.4v.3ZM20.4,29.9h-3.4v-.3h3.4v.3ZM27.2,19.9v.3h-8.5v-.3h8.5ZM27.2,20.5v.3h-8.5v-.3h8.5ZM27.2,21.1v.3h-8.5v-.3h8.5ZM27.2,30.4h-8.5v-.3h8.5v.3ZM27.2,31h-8.5v-.3h8.5v.3ZM27.2,31.6h-8.5v-.3h8.5v.3ZM28.9,21.6v.3h-5.1v-.3h5.1ZM28.9,22.2v.3h-5.1v-.3h5.1ZM28.9,22.8v.3h-5.1v-.3h5.1ZM28.9,23.3v.3h-5.1v-.3h5.1ZM28.9,23.9v.3h-5.1v-.3h5.1ZM28.9,24.5v.3h-5.1v-.3h5.1ZM28.9,25v.3h-5.1v-.3h5.1ZM28.9,25.6v.3h-5.1v-.3h5.1ZM28.9,26.2v.3h-5.1v-.3h5.1ZM28.9,26.7v.3h-5.1v-.3h5.1ZM28.9,27.3v.3h-5.1v-.3h5.1ZM28.9,27.9v.3h-5.1v-.3h5.1ZM28.9,28.4v.3h-5.1v-.3h5.1ZM28.9,29v.3h-5.1v-.3h5.1ZM28.9,29.6v.3h-5.1v-.3h5.1Z"/>
    </g>
  </g>
</svg>